<svg width="23" height="28" viewBox="0 0 23 28" fill="none" xmlns="http://www.w3.org/2000/svg">
<g id="Frame 42">
<path id="Vector" d="M22.8421 22.6667V24H0V22.6667L2.53801 20V12C2.53801 7.86667 5.11409 4.22667 8.88304 3.05333C8.88304 2.92 8.88304 2.8 8.88304 2.66667C8.88304 1.95942 9.15044 1.28115 9.62641 0.781049C10.1024 0.280951 10.7479 0 11.4211 0C12.0942 0 12.7397 0.280951 13.2157 0.781049C13.6917 1.28115 13.9591 1.95942 13.9591 2.66667C13.9591 2.8 13.9591 2.92 13.9591 3.05333C17.728 4.22667 20.3041 7.86667 20.3041 12V20L22.8421 22.6667ZM13.9591 25.3333C13.9591 26.0406 13.6917 26.7189 13.2157 27.219C12.7397 27.719 12.0942 28 11.4211 28C10.7479 28 10.1024 27.719 9.62641 27.219C9.15044 26.7189 8.88304 26.0406 8.88304 25.3333" fill="#408D03"/>
<circle id="Ellipse 39" cx="18" cy="5" r="5" fill="#FFFBA7"/>
</g>
</svg>
